<svg width="241" height="499" viewBox="0 0 241 499" fill="none" xmlns="http://www.w3.org/2000/svg">
<g clip-path="url(#clip0_47_4250)">
<path d="M153.74 29.2123H130.452V52.4472H153.74V29.2123Z" fill="#2E2D2D"/>
<path d="M133.085 29.8441L134.568 31.8781H150.942V47.973L153.004 49.5074V29.8441H133.085Z" fill="#494949"/>
<path d="M150.855 51.5156L149.391 49.5396H133.227V33.9121L131.195 32.4229V51.5156H150.855Z" fill="black"/>
<path d="M177.026 29.2123H153.737V52.4472H177.026V29.2123Z" fill="#2E2D2D"/>
<path d="M156.367 29.8441L157.85 31.8781H174.228V47.973L176.286 49.5074V29.8441H156.367Z" fill="#494949"/>
<path d="M174.137 51.5156L172.674 49.5396H156.509V33.9121L154.477 32.4229V51.5156H174.137Z" fill="black"/>
<path d="M200.292 29.2284H177.003V52.4633H200.292V29.2284Z" fill="#2E2D2D"/>
<path d="M179.633 29.8569L181.116 31.8942H197.491V47.989L199.552 49.5202V29.8569H179.633Z" fill="#494949"/>
<path d="M197.404 51.5316L195.94 49.5556H179.775V33.9281L177.743 32.4357V51.5316H197.404Z" fill="black"/>
<path d="M223.5 29.2284H200.211V52.4633H223.5V29.2284Z" fill="#2E2D2D"/>
<path d="M202.844 29.8569L204.324 31.8942H220.702V47.989L222.763 49.5202V29.8569H202.844Z" fill="#494949"/>
<path d="M220.615 51.5316L219.151 49.5556H202.983V33.9281L200.951 32.4357V51.5316H220.615Z" fill="black"/>
<path d="M177.026 52.4407H153.737V75.6756H177.026V52.4407Z" fill="#51B469"/>
<path d="M174.351 75.0469L172.868 73.0129H156.493V56.9181L154.432 55.3837V75.0469H174.351Z" fill="#4AF173"/>
<path d="M156.58 53.3755L158.044 55.3515H174.208V70.979L176.244 72.4682V53.3755H156.58Z" fill="#1FA53F"/>
<path d="M177.026 75.2404H153.737V98.4753H177.026V75.2404Z" fill="#51B469"/>
<path d="M174.393 97.8499L172.913 95.8159H156.535V79.721L154.474 78.1866V97.8499H174.393Z" fill="#4AF173"/>
<path d="M156.622 76.1752L158.086 78.1512H174.25V93.7819L176.286 95.2711V76.1752H156.622Z" fill="#1FA53F"/>
<path d="M177.026 98.4624H153.737V121.697H177.026V98.4624Z" fill="#51B469"/>
<path d="M174.393 121.072L172.91 119.038H156.535V102.943L154.474 101.409V121.072H174.393Z" fill="#4AF173"/>
<path d="M156.622 99.3972L158.086 101.373H174.25V117.004L176.286 118.493V99.3972H156.622Z" fill="#1FA53F"/>
<path d="M177.026 121.491H153.737V144.726H177.026V121.491Z" fill="#51B469"/>
<path d="M174.393 144.097L172.91 142.063H156.535V125.968L154.474 124.434V144.097H174.393Z" fill="#4AF173"/>
<path d="M156.622 122.423L158.086 124.399H174.25V140.029L176.286 141.519V122.423H156.622Z" fill="#1FA53F"/>
<path d="M60.7952 29.2091H37.5065V52.444H60.7952V29.2091Z" fill="#51B469"/>
<path d="M60.1684 31.8781L58.1297 33.3544V49.6943H41.9975L40.4596 51.7508H60.1684V31.8781Z" fill="#4AF173"/>
<path d="M38.4434 49.6073L40.424 48.147V32.0199H56.091L57.5837 29.9891H38.4434V49.6073Z" fill="#1FA53F"/>
<path d="M60.7955 6H37.5067V29.2349H60.7955V6Z" fill="#51B469"/>
<path d="M60.1684 8.62708L58.1297 10.1034V26.4433H41.9975L40.4596 28.4999H60.1684V8.62708Z" fill="#4AF173"/>
<path d="M38.4434 26.3563L40.424 24.8961V8.76896H56.091L57.5837 6.73816H38.4434V26.3563Z" fill="#1FA53F"/>
<path d="M84.0721 6H60.7833V29.2349H84.0721V6Z" fill="#51B469"/>
<path d="M83.4452 8.62708L81.4065 10.1034V26.4433H65.2743L63.7364 28.4999H83.4452V8.62708Z" fill="#4AF173"/>
<path d="M61.7203 26.3563L63.7008 24.8961V8.76896H79.3678L80.8605 6.73816H61.7203V26.3563Z" fill="#1FA53F"/>
<path d="M107.154 6H83.8653V29.2349H107.154V6Z" fill="#51B469"/>
<path d="M106.524 8.62708L104.485 10.1034V26.4433H88.3531L86.8151 28.4999H106.524V8.62708Z" fill="#4AF173"/>
<path d="M84.799 26.3563L86.7796 24.8961V8.76896H102.447L103.939 6.73816H84.799V26.3563Z" fill="#1FA53F"/>
<path d="M60.805 52.1667H37.5162V75.4016H60.805V52.1667Z" fill="#2E2D2D"/>
<path d="M60.1749 54.7938L58.1361 56.2734V72.61H42.004L40.466 74.6666H60.1749V54.7938Z" fill="#494949"/>
<path d="M38.4531 72.5231L40.4305 71.0628V54.9357H56.0974L57.5901 52.9049H38.4531V72.5231Z" fill="black"/>
<path d="M60.8049 75.3951H37.5162V98.63H60.8049V75.3951Z" fill="#2E2D2D"/>
<path d="M60.1749 78.0223L58.1361 79.5019V95.8386H42.004L40.466 97.8951H60.1749V78.0223Z" fill="#494949"/>
<path d="M38.4531 95.7515L40.4305 94.2913V78.1642H56.0974L57.5901 76.1366H38.4531V95.7515Z" fill="black"/>
<path d="M60.7888 98.6075H37.5V121.842H60.7888V98.6075Z" fill="#2E2D2D"/>
<path d="M60.1587 101.235L58.12 102.714V119.051H41.9878L40.4499 121.107H60.1587V101.235Z" fill="#494949"/>
<path d="M38.437 118.964L40.4143 117.504V101.377H56.0813L57.574 99.3457H38.437V118.964Z" fill="black"/>
<path d="M60.7888 121.765H37.5V145H60.7888V121.765Z" fill="#2E2D2D"/>
<path d="M60.1587 124.389L58.12 125.868V142.208H41.9878L40.4499 144.262H60.1587V124.389Z" fill="#494949"/>
<path d="M38.437 142.118L40.4143 140.658V124.531H56.0813L57.574 122.503H38.437V142.118Z" fill="black"/>
<path d="M107.205 52.2699H83.916V75.5048H107.205V52.2699Z" fill="#EEF2EB"/>
<path d="M104.533 74.8763L103.05 72.8423H86.672V56.7474L84.6139 55.213V74.8763H104.533Z" fill="white"/>
<path d="M86.7625 53.2015L88.2261 55.1775H104.391V70.8082L106.423 72.2975V53.2015H86.7625Z" fill="#E5E5E5"/>
<path d="M130.468 6.01929H107.179V29.2542H130.468V6.01929Z" fill="#EEF2EB"/>
<path d="M127.838 28.6288L126.355 26.5948H109.977V10.5L107.919 8.96558V28.6288H127.838Z" fill="white"/>
<path d="M110.067 6.9541L111.531 8.9301H127.696V24.5608L129.728 26.05V6.9541H110.067Z" fill="#E5E5E5"/>
<path d="M130.468 29.2413H107.179V52.4762H130.468V29.2413Z" fill="#EEF2EB"/>
<path d="M127.838 51.8509L126.355 49.8169H109.977V33.722L107.919 32.1876V51.8509H127.838Z" fill="white"/>
<path d="M110.067 30.1761L111.531 32.1521H127.696V47.7796L129.728 49.2721V30.1761H110.067Z" fill="#E5E5E5"/>
<path d="M130.468 52.2699H107.179V75.5048H130.468V52.2699Z" fill="#EEF2EB"/>
<path d="M127.838 74.8763L126.355 72.8423H109.977V56.7474L107.919 55.213V74.8763H127.838Z" fill="white"/>
<path d="M110.067 53.2015L111.531 55.1775H127.696V70.8082L129.728 72.2975V53.2015H110.067Z" fill="#E5E5E5"/>
</g>
<path d="M29.9481 200.2C29.9481 202.233 29.4814 204.1 28.5481 205.8C27.6147 207.467 26.1814 208.817 24.2481 209.85C22.3147 210.883 19.9147 211.4 17.0481 211.4H11.7481V224H3.19805V188.9H17.0481C19.8481 188.9 22.2147 189.383 24.1481 190.35C26.0814 191.317 27.5314 192.65 28.4981 194.35C29.4647 196.05 29.9481 198 29.9481 200.2ZM16.3981 204.6C18.0314 204.6 19.2481 204.217 20.0481 203.45C20.8481 202.683 21.2481 201.6 21.2481 200.2C21.2481 198.8 20.8481 197.717 20.0481 196.95C19.2481 196.183 18.0314 195.8 16.3981 195.8H11.7481V204.6H16.3981ZM140.723 188.9V195.75H131.423V224H122.873V195.75H113.573V188.9H140.723Z" fill="#EEF2EB"/>
<path d="M43.1492 187V224H34.5992V187H43.1492ZM47.8453 210C47.8453 207.133 48.3787 204.617 49.4453 202.45C50.5453 200.283 52.0287 198.617 53.8953 197.45C55.762 196.283 57.8453 195.7 60.1453 195.7C62.112 195.7 63.8287 196.1 65.2953 196.9C66.7953 197.7 67.9453 198.75 68.7453 200.05V196.1H77.2953V224H68.7453V220.05C67.912 221.35 66.7453 222.4 65.2453 223.2C63.7787 224 62.062 224.4 60.0953 224.4C57.8287 224.4 55.762 223.817 53.8953 222.65C52.0287 221.45 50.5453 219.767 49.4453 217.6C48.3787 215.4 47.8453 212.867 47.8453 210ZM68.7453 210.05C68.7453 207.917 68.1453 206.233 66.9453 205C65.7787 203.767 64.3453 203.15 62.6453 203.15C60.9453 203.15 59.4953 203.767 58.2953 205C57.1287 206.2 56.5453 207.867 56.5453 210C56.5453 212.133 57.1287 213.833 58.2953 215.1C59.4953 216.333 60.9453 216.95 62.6453 216.95C64.3453 216.95 65.7787 216.333 66.9453 215.1C68.1453 213.867 68.7453 212.183 68.7453 210.05ZM112.181 196.1L94.6809 237.25H85.4809L91.8809 223.05L80.5309 196.1H90.0809L96.5309 213.55L102.931 196.1H112.181ZM149.514 193.2C148.014 193.2 146.78 192.767 145.814 191.9C144.88 191 144.414 189.9 144.414 188.6C144.414 187.267 144.88 186.167 145.814 185.3C146.78 184.4 148.014 183.95 149.514 183.95C150.98 183.95 152.18 184.4 153.114 185.3C154.08 186.167 154.564 187.267 154.564 188.6C154.564 189.9 154.08 191 153.114 191.9C152.18 192.767 150.98 193.2 149.514 193.2ZM153.764 196.1V224H145.214V196.1H153.764ZM195.76 195.8C199.226 195.8 201.976 196.85 204.01 198.95C206.076 201.05 207.11 203.967 207.11 207.7V224H198.61V208.85C198.61 207.05 198.126 205.667 197.16 204.7C196.226 203.7 194.926 203.2 193.26 203.2C191.593 203.2 190.276 203.7 189.31 204.7C188.376 205.667 187.91 207.05 187.91 208.85V224H179.41V208.85C179.41 207.05 178.926 205.667 177.96 204.7C177.026 203.7 175.726 203.2 174.06 203.2C172.393 203.2 171.076 203.7 170.11 204.7C169.176 205.667 168.71 207.05 168.71 208.85V224H160.16V196.1H168.71V199.6C169.576 198.433 170.71 197.517 172.11 196.85C173.51 196.15 175.093 195.8 176.86 195.8C178.96 195.8 180.826 196.25 182.46 197.15C184.126 198.05 185.426 199.333 186.36 201C187.326 199.467 188.643 198.217 190.31 197.25C191.976 196.283 193.793 195.8 195.76 195.8ZM239.589 209.6C239.589 210.4 239.539 211.233 239.439 212.1H220.089C220.223 213.833 220.773 215.167 221.739 216.1C222.739 217 223.956 217.45 225.389 217.45C227.523 217.45 229.006 216.55 229.839 214.75H238.939C238.473 216.583 237.623 218.233 236.389 219.7C235.189 221.167 233.673 222.317 231.839 223.15C230.006 223.983 227.956 224.4 225.689 224.4C222.956 224.4 220.523 223.817 218.389 222.65C216.256 221.483 214.589 219.817 213.389 217.65C212.189 215.483 211.589 212.95 211.589 210.05C211.589 207.15 212.173 204.617 213.339 202.45C214.539 200.283 216.206 198.617 218.339 197.45C220.473 196.283 222.923 195.7 225.689 195.7C228.389 195.7 230.789 196.267 232.889 197.4C234.989 198.533 236.623 200.15 237.789 202.25C238.989 204.35 239.589 206.8 239.589 209.6ZM230.839 207.35C230.839 205.883 230.339 204.717 229.339 203.85C228.339 202.983 227.089 202.55 225.589 202.55C224.156 202.55 222.939 202.967 221.939 203.8C220.973 204.633 220.373 205.817 220.139 207.35H230.839Z" fill="#51B469"/>
<path d="M51.9356 491.02C51.9356 491.62 51.739 492.103 51.3456 492.47C50.9523 492.837 50.3623 493.02 49.5756 493.02H48.1656V496H47.4656V489.01H49.5756C50.3556 489.01 50.9423 489.193 51.3356 489.56C51.7356 489.927 51.9356 490.413 51.9356 491.02ZM49.5756 492.42C50.669 492.42 51.2156 491.953 51.2156 491.02C51.2156 490.553 51.0856 490.2 50.8256 489.96C50.5656 489.72 50.149 489.6 49.5756 489.6H48.1656V492.42H49.5756ZM55.7002 496.08C55.1868 496.08 54.7235 495.967 54.3102 495.74C53.9035 495.507 53.5801 495.18 53.3401 494.76C53.1068 494.333 52.9901 493.837 52.9901 493.27C52.9901 492.703 53.1101 492.21 53.3502 491.79C53.5902 491.363 53.9168 491.037 54.3302 490.81C54.7435 490.577 55.2068 490.46 55.7202 490.46C56.2335 490.46 56.6968 490.577 57.1102 490.81C57.5301 491.037 57.8568 491.363 58.0902 491.79C58.3302 492.21 58.4502 492.703 58.4502 493.27C58.4502 493.83 58.3302 494.323 58.0902 494.75C57.8502 495.177 57.5202 495.507 57.1002 495.74C56.6802 495.967 56.2135 496.08 55.7002 496.08ZM55.7002 495.47C56.0602 495.47 56.3935 495.39 56.7002 495.23C57.0068 495.063 57.2535 494.817 57.4402 494.49C57.6335 494.157 57.7302 493.75 57.7302 493.27C57.7302 492.79 57.6368 492.387 57.4502 492.06C57.2635 491.727 57.0168 491.48 56.7102 491.32C56.4035 491.153 56.0702 491.07 55.7102 491.07C55.3502 491.07 55.0168 491.153 54.7102 491.32C54.4035 491.48 54.1568 491.727 53.9702 492.06C53.7902 492.387 53.7001 492.79 53.7001 493.27C53.7001 493.75 53.7902 494.157 53.9702 494.49C54.1568 494.817 54.4002 495.063 54.7002 495.23C55.0068 495.39 55.3402 495.47 55.7002 495.47ZM67.1262 490.54L65.4162 496H64.7162L63.2062 491.42L61.6962 496H60.9862L59.2762 490.54H59.9862L61.3462 495.29L62.8762 490.54H63.5762L65.0862 495.3L66.4362 490.54H67.1262ZM73.2205 492.99C73.2205 493.23 73.2138 493.413 73.2005 493.54H68.6705C68.6905 493.953 68.7905 494.307 68.9705 494.6C69.1505 494.893 69.3871 495.117 69.6805 495.27C69.9738 495.417 70.2938 495.49 70.6405 495.49C71.0938 495.49 71.4738 495.38 71.7805 495.16C72.0938 494.94 72.3005 494.643 72.4005 494.27H73.1405C73.0071 494.803 72.7205 495.24 72.2805 495.58C71.8471 495.913 71.3005 496.08 70.6405 496.08C70.1271 496.08 69.6671 495.967 69.2605 495.74C68.8538 495.507 68.5338 495.18 68.3005 494.76C68.0738 494.333 67.9605 493.837 67.9605 493.27C67.9605 492.703 68.0738 492.207 68.3005 491.78C68.5271 491.353 68.8438 491.027 69.2505 490.8C69.6571 490.573 70.1205 490.46 70.6405 490.46C71.1605 490.46 71.6138 490.573 72.0005 490.8C72.3938 491.027 72.6938 491.333 72.9005 491.72C73.1138 492.1 73.2205 492.523 73.2205 492.99ZM72.5105 492.97C72.5171 492.563 72.4338 492.217 72.2605 491.93C72.0938 491.643 71.8638 491.427 71.5705 491.28C71.2771 491.133 70.9571 491.06 70.6105 491.06C70.0905 491.06 69.6471 491.227 69.2805 491.56C68.9138 491.893 68.7105 492.363 68.6705 492.97H72.5105ZM75.4012 491.51C75.5545 491.17 75.7878 490.907 76.1012 490.72C76.4212 490.533 76.8112 490.44 77.2712 490.44V491.17H77.0812C76.5745 491.17 76.1678 491.307 75.8612 491.58C75.5545 491.853 75.4012 492.31 75.4012 492.95V496H74.7012V490.54H75.4012V491.51ZM83.4642 492.99C83.4642 493.23 83.4575 493.413 83.4442 493.54H78.9142C78.9342 493.953 79.0342 494.307 79.2142 494.6C79.3942 494.893 79.6309 495.117 79.9242 495.27C80.2175 495.417 80.5375 495.49 80.8842 495.49C81.3375 495.49 81.7175 495.38 82.0242 495.16C82.3375 494.94 82.5442 494.643 82.6442 494.27H83.3842C83.2509 494.803 82.9642 495.24 82.5242 495.58C82.0909 495.913 81.5442 496.08 80.8842 496.08C80.3709 496.08 79.9109 495.967 79.5042 495.74C79.0975 495.507 78.7775 495.18 78.5442 494.76C78.3175 494.333 78.2042 493.837 78.2042 493.27C78.2042 492.703 78.3175 492.207 78.5442 491.78C78.7709 491.353 79.0875 491.027 79.4942 490.8C79.9009 490.573 80.3642 490.46 80.8842 490.46C81.4042 490.46 81.8575 490.573 82.2442 490.8C82.6375 491.027 82.9375 491.333 83.1442 491.72C83.3575 492.1 83.4642 492.523 83.4642 492.99ZM82.7542 492.97C82.7609 492.563 82.6775 492.217 82.5042 491.93C82.3375 491.643 82.1075 491.427 81.8142 491.28C81.5209 491.133 81.2009 491.06 80.8542 491.06C80.3342 491.06 79.8909 491.227 79.5242 491.56C79.1575 491.893 78.9542 492.363 78.9142 492.97H82.7542ZM84.6249 493.26C84.6249 492.7 84.7382 492.21 84.9649 491.79C85.1916 491.363 85.5016 491.037 85.8949 490.81C86.2949 490.577 86.7449 490.46 87.2449 490.46C87.7249 490.46 88.1583 490.577 88.5449 490.81C88.9316 491.043 89.2149 491.347 89.3949 491.72V488.6H90.0949V496H89.3949V494.78C89.2282 495.16 88.9549 495.473 88.5749 495.72C88.1949 495.96 87.7482 496.08 87.2349 496.08C86.7349 496.08 86.2849 495.963 85.8849 495.73C85.4916 495.497 85.1816 495.167 84.9549 494.74C84.7349 494.313 84.6249 493.82 84.6249 493.26ZM89.3949 493.27C89.3949 492.83 89.3049 492.443 89.1249 492.11C88.9449 491.777 88.6983 491.52 88.3849 491.34C88.0783 491.16 87.7383 491.07 87.3649 491.07C86.9782 491.07 86.6316 491.157 86.3249 491.33C86.0182 491.503 85.7749 491.757 85.5949 492.09C85.4216 492.417 85.3349 492.807 85.3349 493.26C85.3349 493.707 85.4216 494.1 85.5949 494.44C85.7749 494.773 86.0182 495.03 86.3249 495.21C86.6316 495.383 86.9782 495.47 87.3649 495.47C87.7383 495.47 88.0783 495.38 88.3849 495.2C88.6983 495.02 88.9449 494.763 89.1249 494.43C89.3049 494.097 89.3949 493.71 89.3949 493.27ZM95.5271 491.75C95.7071 491.37 95.9838 491.06 96.3571 490.82C96.7371 490.58 97.1838 490.46 97.6971 490.46C98.1971 490.46 98.6438 490.577 99.0371 490.81C99.4304 491.037 99.7371 491.363 99.9571 491.79C100.184 492.21 100.297 492.7 100.297 493.26C100.297 493.82 100.184 494.313 99.9571 494.74C99.7371 495.167 99.4271 495.497 99.0271 495.73C98.6338 495.963 98.1904 496.08 97.6971 496.08C97.1771 496.08 96.7271 495.963 96.3471 495.73C95.9738 495.49 95.7004 495.18 95.5271 494.8V496H94.8371V488.6H95.5271V491.75ZM99.5871 493.26C99.5871 492.807 99.4971 492.417 99.3171 492.09C99.1438 491.757 98.9038 491.503 98.5971 491.33C98.2904 491.157 97.9438 491.07 97.5571 491.07C97.1838 491.07 96.8404 491.16 96.5271 491.34C96.2204 491.52 95.9771 491.777 95.7971 492.11C95.6171 492.443 95.5271 492.83 95.5271 493.27C95.5271 493.71 95.6171 494.097 95.7971 494.43C95.9771 494.763 96.2204 495.02 96.5271 495.2C96.8404 495.38 97.1838 495.47 97.5571 495.47C97.9438 495.47 98.2904 495.383 98.5971 495.21C98.9038 495.03 99.1438 494.773 99.3171 494.44C99.4971 494.1 99.5871 493.707 99.5871 493.26ZM106.285 490.54L103.045 498.57H102.315L103.375 495.97L101.135 490.54H101.905L103.765 495.2L105.565 490.54H106.285ZM115.919 489.01L113.269 496H112.469L109.819 489.01H110.579L112.869 495.24L115.179 489.01H115.919ZM122.11 492.99C122.11 493.23 122.104 493.413 122.09 493.54H117.56C117.58 493.953 117.68 494.307 117.86 494.6C118.04 494.893 118.277 495.117 118.57 495.27C118.864 495.417 119.184 495.49 119.53 495.49C119.984 495.49 120.364 495.38 120.67 495.16C120.984 494.94 121.19 494.643 121.29 494.27H122.03C121.897 494.803 121.61 495.24 121.17 495.58C120.737 495.913 120.19 496.08 119.53 496.08C119.017 496.08 118.557 495.967 118.15 495.74C117.744 495.507 117.424 495.18 117.19 494.76C116.964 494.333 116.85 493.837 116.85 493.27C116.85 492.703 116.964 492.207 117.19 491.78C117.417 491.353 117.734 491.027 118.14 490.8C118.547 490.573 119.01 490.46 119.53 490.46C120.05 490.46 120.504 490.573 120.89 490.8C121.284 491.027 121.584 491.333 121.79 491.72C122.004 492.1 122.11 492.523 122.11 492.99ZM121.4 492.97C121.407 492.563 121.324 492.217 121.15 491.93C120.984 491.643 120.754 491.427 120.46 491.28C120.167 491.133 119.847 491.06 119.5 491.06C118.98 491.06 118.537 491.227 118.17 491.56C117.804 491.893 117.6 492.363 117.56 492.97H121.4ZM124.291 491.51C124.444 491.17 124.678 490.907 124.991 490.72C125.311 490.533 125.701 490.44 126.161 490.44V491.17H125.971C125.464 491.17 125.058 491.307 124.751 491.58C124.444 491.853 124.291 492.31 124.291 492.95V496H123.591V490.54H124.291V491.51ZM128.324 491.13V494.52C128.324 494.853 128.387 495.083 128.514 495.21C128.641 495.337 128.864 495.4 129.184 495.4H129.824V496H129.074C128.581 496 128.214 495.887 127.974 495.66C127.734 495.427 127.614 495.047 127.614 494.52V491.13H126.854V490.54H127.614V489.17H128.324V490.54H129.824V491.13H128.324ZM131.529 489.51C131.389 489.51 131.269 489.46 131.169 489.36C131.069 489.26 131.019 489.137 131.019 488.99C131.019 488.843 131.069 488.723 131.169 488.63C131.269 488.53 131.389 488.48 131.529 488.48C131.669 488.48 131.789 488.53 131.889 488.63C131.989 488.723 132.039 488.843 132.039 488.99C132.039 489.137 131.989 489.26 131.889 489.36C131.789 489.46 131.669 489.51 131.529 489.51ZM131.879 490.54V496H131.179V490.54H131.879ZM133.344 493.27C133.344 492.703 133.457 492.21 133.684 491.79C133.91 491.363 134.224 491.037 134.624 490.81C135.024 490.577 135.48 490.46 135.994 490.46C136.667 490.46 137.22 490.627 137.654 490.96C138.094 491.293 138.377 491.747 138.504 492.32H137.754C137.66 491.927 137.457 491.62 137.144 491.4C136.837 491.173 136.454 491.06 135.994 491.06C135.627 491.06 135.297 491.143 135.004 491.31C134.71 491.477 134.477 491.727 134.304 492.06C134.137 492.387 134.054 492.79 134.054 493.27C134.054 493.75 134.137 494.157 134.304 494.49C134.477 494.823 134.71 495.073 135.004 495.24C135.297 495.407 135.627 495.49 135.994 495.49C136.454 495.49 136.837 495.38 137.144 495.16C137.457 494.933 137.66 494.62 137.754 494.22H138.504C138.377 494.78 138.094 495.23 137.654 495.57C137.214 495.91 136.66 496.08 135.994 496.08C135.48 496.08 135.024 495.967 134.624 495.74C134.224 495.507 133.91 495.18 133.684 494.76C133.457 494.333 133.344 493.837 133.344 493.27ZM139.676 493.26C139.676 492.7 139.786 492.21 140.006 491.79C140.233 491.363 140.543 491.037 140.936 490.81C141.336 490.577 141.786 490.46 142.286 490.46C142.806 490.46 143.253 490.58 143.626 490.82C144.006 491.06 144.28 491.367 144.446 491.74V490.54H145.146V496H144.446V494.79C144.273 495.163 143.996 495.473 143.616 495.72C143.243 495.96 142.796 496.08 142.276 496.08C141.783 496.08 141.336 495.963 140.936 495.73C140.543 495.497 140.233 495.167 140.006 494.74C139.786 494.313 139.676 493.82 139.676 493.26ZM144.446 493.27C144.446 492.83 144.356 492.443 144.176 492.11C143.996 491.777 143.75 491.52 143.436 491.34C143.13 491.16 142.79 491.07 142.416 491.07C142.03 491.07 141.683 491.157 141.376 491.33C141.07 491.503 140.826 491.757 140.646 492.09C140.473 492.417 140.386 492.807 140.386 493.26C140.386 493.707 140.473 494.1 140.646 494.44C140.826 494.773 141.07 495.03 141.376 495.21C141.683 495.383 142.03 495.47 142.416 495.47C142.79 495.47 143.13 495.38 143.436 495.2C143.75 495.02 143.996 494.763 144.176 494.43C144.356 494.097 144.446 493.71 144.446 493.27ZM147.645 488.6V496H146.945V488.6H147.645ZM154.494 496.07C154.034 496.07 153.627 495.99 153.274 495.83C152.927 495.67 152.654 495.447 152.454 495.16C152.254 494.873 152.147 494.553 152.134 494.2H152.874C152.907 494.54 153.057 494.84 153.324 495.1C153.59 495.353 153.98 495.48 154.494 495.48C154.967 495.48 155.34 495.36 155.614 495.12C155.894 494.873 156.034 494.563 156.034 494.19C156.034 493.89 155.957 493.65 155.804 493.47C155.65 493.283 155.46 493.147 155.234 493.06C155.007 492.967 154.694 492.867 154.294 492.76C153.827 492.633 153.457 492.51 153.184 492.39C152.91 492.27 152.677 492.083 152.484 491.83C152.29 491.577 152.194 491.233 152.194 490.8C152.194 490.44 152.287 490.12 152.474 489.84C152.66 489.553 152.924 489.33 153.264 489.17C153.604 489.01 153.994 488.93 154.434 488.93C155.08 488.93 155.6 489.09 155.994 489.41C156.394 489.723 156.624 490.13 156.684 490.63H155.924C155.877 490.343 155.72 490.09 155.454 489.87C155.187 489.643 154.827 489.53 154.374 489.53C153.954 489.53 153.604 489.643 153.324 489.87C153.044 490.09 152.904 490.393 152.904 490.78C152.904 491.073 152.98 491.31 153.134 491.49C153.287 491.67 153.477 491.807 153.704 491.9C153.937 491.993 154.25 492.093 154.644 492.2C155.097 492.327 155.464 492.453 155.744 492.58C156.024 492.7 156.26 492.887 156.454 493.14C156.647 493.393 156.744 493.733 156.744 494.16C156.744 494.487 156.657 494.797 156.484 495.09C156.31 495.383 156.054 495.62 155.714 495.8C155.374 495.98 154.967 496.07 154.494 496.07ZM157.976 493.27C157.976 492.703 158.09 492.21 158.316 491.79C158.543 491.363 158.856 491.037 159.256 490.81C159.656 490.577 160.113 490.46 160.626 490.46C161.3 490.46 161.853 490.627 162.286 490.96C162.726 491.293 163.01 491.747 163.136 492.32H162.386C162.293 491.927 162.09 491.62 161.776 491.4C161.47 491.173 161.086 491.06 160.626 491.06C160.26 491.06 159.93 491.143 159.636 491.31C159.343 491.477 159.11 491.727 158.936 492.06C158.77 492.387 158.686 492.79 158.686 493.27C158.686 493.75 158.77 494.157 158.936 494.49C159.11 494.823 159.343 495.073 159.636 495.24C159.93 495.407 160.26 495.49 160.626 495.49C161.086 495.49 161.47 495.38 161.776 495.16C162.09 494.933 162.293 494.62 162.386 494.22H163.136C163.01 494.78 162.726 495.23 162.286 495.57C161.846 495.91 161.293 496.08 160.626 496.08C160.113 496.08 159.656 495.967 159.256 495.74C158.856 495.507 158.543 495.18 158.316 494.76C158.09 494.333 157.976 493.837 157.976 493.27ZM165.329 491.51C165.483 491.17 165.716 490.907 166.029 490.72C166.349 490.533 166.739 490.44 167.199 490.44V491.17H167.009C166.503 491.17 166.096 491.307 165.789 491.58C165.483 491.853 165.329 492.31 165.329 492.95V496H164.629V490.54H165.329V491.51ZM170.842 496.08C170.329 496.08 169.866 495.967 169.452 495.74C169.046 495.507 168.722 495.18 168.482 494.76C168.249 494.333 168.132 493.837 168.132 493.27C168.132 492.703 168.252 492.21 168.492 491.79C168.732 491.363 169.059 491.037 169.472 490.81C169.886 490.577 170.349 490.46 170.862 490.46C171.376 490.46 171.839 490.577 172.252 490.81C172.672 491.037 172.999 491.363 173.232 491.79C173.472 492.21 173.592 492.703 173.592 493.27C173.592 493.83 173.472 494.323 173.232 494.75C172.992 495.177 172.662 495.507 172.242 495.74C171.822 495.967 171.356 496.08 170.842 496.08ZM170.842 495.47C171.202 495.47 171.536 495.39 171.842 495.23C172.149 495.063 172.396 494.817 172.582 494.49C172.776 494.157 172.872 493.75 172.872 493.27C172.872 492.79 172.779 492.387 172.592 492.06C172.406 491.727 172.159 491.48 171.852 491.32C171.546 491.153 171.212 491.07 170.852 491.07C170.492 491.07 170.159 491.153 169.852 491.32C169.546 491.48 169.299 491.727 169.112 492.06C168.932 492.387 168.842 492.79 168.842 493.27C168.842 493.75 168.932 494.157 169.112 494.49C169.299 494.817 169.542 495.063 169.842 495.23C170.149 495.39 170.482 495.47 170.842 495.47ZM175.768 488.6V496H175.068V488.6H175.768ZM178.254 488.6V496H177.554V488.6H178.254ZM180.389 489.51C180.249 489.51 180.129 489.46 180.029 489.36C179.929 489.26 179.879 489.137 179.879 488.99C179.879 488.843 179.929 488.723 180.029 488.63C180.129 488.53 180.249 488.48 180.389 488.48C180.529 488.48 180.649 488.53 180.749 488.63C180.849 488.723 180.899 488.843 180.899 488.99C180.899 489.137 180.849 489.26 180.749 489.36C180.649 489.46 180.529 489.51 180.389 489.51ZM180.739 490.54V496H180.039V490.54H180.739ZM185.084 490.44C185.737 490.44 186.27 490.643 186.684 491.05C187.097 491.45 187.304 492.033 187.304 492.8V496H186.614V492.88C186.614 492.287 186.464 491.833 186.164 491.52C185.87 491.207 185.467 491.05 184.954 491.05C184.427 491.05 184.007 491.217 183.694 491.55C183.38 491.883 183.224 492.373 183.224 493.02V496H182.524V490.54H183.224V491.47C183.397 491.137 183.647 490.883 183.974 490.71C184.3 490.53 184.67 490.44 185.084 490.44ZM191.342 490.46C191.855 490.46 192.302 490.58 192.682 490.82C193.062 491.06 193.335 491.363 193.502 491.73V490.54H194.202V496.14C194.202 496.64 194.092 497.083 193.872 497.47C193.659 497.857 193.359 498.153 192.972 498.36C192.585 498.573 192.145 498.68 191.652 498.68C190.952 498.68 190.369 498.513 189.902 498.18C189.442 497.847 189.155 497.393 189.042 496.82H189.732C189.852 497.2 190.079 497.503 190.412 497.73C190.752 497.957 191.165 498.07 191.652 498.07C192.005 498.07 192.322 497.993 192.602 497.84C192.882 497.693 193.102 497.473 193.262 497.18C193.422 496.887 193.502 496.54 193.502 496.14V494.79C193.329 495.163 193.052 495.473 192.672 495.72C192.299 495.96 191.855 496.08 191.342 496.08C190.842 496.08 190.392 495.963 189.992 495.73C189.599 495.497 189.289 495.167 189.062 494.74C188.842 494.313 188.732 493.82 188.732 493.26C188.732 492.7 188.842 492.21 189.062 491.79C189.289 491.363 189.599 491.037 189.992 490.81C190.392 490.577 190.842 490.46 191.342 490.46ZM193.502 493.27C193.502 492.83 193.412 492.443 193.232 492.11C193.052 491.777 192.805 491.52 192.492 491.34C192.185 491.16 191.845 491.07 191.472 491.07C191.085 491.07 190.739 491.157 190.432 491.33C190.125 491.503 189.882 491.757 189.702 492.09C189.529 492.417 189.442 492.807 189.442 493.26C189.442 493.707 189.529 494.1 189.702 494.44C189.882 494.773 190.125 495.03 190.432 495.21C190.739 495.383 191.085 495.47 191.472 495.47C191.845 495.47 192.185 495.38 192.492 495.2C192.805 495.02 193.052 494.763 193.232 494.43C193.412 494.097 193.502 493.71 193.502 493.27Z" fill="white"/>
<defs>
<clipPath id="clip0_47_4250">
<rect width="206" height="145" fill="white" transform="translate(17.5)"/>
</clipPath>
</defs>
</svg>
