<svg width="360" height="679" viewBox="0 0 360 679" fill="none" xmlns="http://www.w3.org/2000/svg">
<g opacity="0.5">
<path d="M313.25 400.25L359.641 400.25L359.641 446.75L313.25 446.75L313.25 400.25Z" fill="#1A1A1A" stroke="#51B469" stroke-width="0.5"/>
<path d="M313.25 446.75L359.641 446.75L359.641 493.25L313.25 493.25L313.25 446.75Z" fill="#1A1A1A" stroke="#51B469" stroke-width="0.5"/>
<path d="M313.25 493.25L359.641 493.25L359.641 539.75L313.25 539.75L313.25 493.25Z" fill="#1A1A1A" stroke="#51B469" stroke-width="0.5"/>
<path d="M313.25 539.75L359.641 539.75L359.641 586.25L313.25 586.25L313.25 539.75Z" fill="#1A1A1A" stroke="#51B469" stroke-width="0.5"/>
<path d="M63.25 46.25L109.641 46.25L109.641 92.75L63.25 92.75L63.25 46.25Z" fill="#1A1A1A" stroke="#51B469" stroke-width="0.5"/>
<path d="M63.25 92.75L109.641 92.75L109.641 139.25L63.25 139.25L63.25 92.75Z" fill="#1A1A1A" stroke="#51B469" stroke-width="0.5"/>
<path d="M63.25 139.25L109.641 139.25L109.641 185.75L63.25 185.75L63.25 139.25Z" fill="#1A1A1A" stroke="#51B469" stroke-width="0.5"/>
<path d="M63.25 185.75L109.641 185.75L109.641 232.25L63.25 232.25L63.25 185.75Z" fill="#1A1A1A" stroke="#51B469" stroke-width="0.5"/>
<path d="M17.25 302.25L63.6413 302.25L63.6413 348.75L17.25 348.75L17.25 302.25Z" fill="#1A1A1A" stroke="#51B469" stroke-width="0.5"/>
<path d="M63.3587 348.75L109.75 348.75L109.75 395.25L63.3587 395.25L63.3587 348.75Z" fill="#1A1A1A" stroke="#51B469" stroke-width="0.5"/>
<path d="M16.9674 348.75L63.3587 348.75L63.3587 395.25L16.9674 395.25L16.9674 348.75Z" fill="#1A1A1A" stroke="#51B469" stroke-width="0.5"/>
<path d="M63.3587 395.25L109.75 395.25L109.75 441.75L63.3587 441.75L63.3587 395.25Z" fill="#1A1A1A" stroke="#51B469" stroke-width="0.5"/>
<path d="M267.25 586.25L313.641 586.25L313.641 632.75L267.25 632.75L267.25 586.25Z" fill="#1A1A1A" stroke="#51B469" stroke-width="0.5"/>
<path d="M267.25 632.75L313.641 632.75L313.641 679.25L267.25 679.25L267.25 632.75Z" fill="#1A1A1A" stroke="#51B469" stroke-width="0.5"/>
<path d="M313.641 586.25L360.033 586.25L360.033 632.75L313.641 632.75L313.641 586.25Z" fill="#1A1A1A" stroke="#51B469" stroke-width="0.5"/>
<path d="M313.641 632.75L360.033 632.75L360.033 679.25L313.641 679.25L313.641 632.75Z" fill="#1A1A1A" stroke="#51B469" stroke-width="0.5"/>
<path d="M153.25 115.25L199.641 115.25L199.641 161.75L153.25 161.75L153.25 115.25Z" fill="#1A1A1A" stroke="#51B469" stroke-width="0.5"/>
<path d="M153.25 161.75L199.641 161.75L199.641 208.25L153.25 208.25L153.25 161.75Z" fill="#1A1A1A" stroke="#51B469" stroke-width="0.5"/>
<path d="M199.641 115.25L246.033 115.25L246.033 161.75L199.641 161.75L199.641 115.25Z" fill="#1A1A1A" stroke="#51B469" stroke-width="0.5"/>
<path d="M199.641 161.75L246.033 161.75L246.033 208.25L199.641 208.25L199.641 161.75Z" fill="#1A1A1A" stroke="#51B469" stroke-width="0.5"/>
<path d="M171.641 471.25L218.033 471.25L218.033 517.75L171.641 517.75L171.641 471.25Z" fill="#1A1A1A" stroke="#51B469" stroke-width="0.5"/>
<path d="M125.25 564.25L171.641 564.25L171.641 610.75L125.25 610.75L125.25 564.25Z" fill="#1A1A1A" stroke="#51B469" stroke-width="0.5"/>
<path d="M125.25 517.75L171.641 517.75L171.641 564.25L125.25 564.25L125.25 517.75Z" fill="#1A1A1A" stroke="#51B469" stroke-width="0.5"/>
<path d="M125.25 471.25L171.641 471.25L171.641 517.75L125.25 517.75L125.25 471.25Z" fill="#1A1A1A" stroke="#51B469" stroke-width="0.5"/>
<path d="M267.359 493.25L313.75 493.25L313.75 539.75L267.359 539.75L267.359 493.25Z" fill="#1A1A1A" stroke="#51B469" stroke-width="0.5"/>
<path d="M267.359 539.75L313.75 539.75L313.75 586.25L267.359 586.25L267.359 539.75Z" fill="#1A1A1A" stroke="#51B469" stroke-width="0.5"/>
<path d="M220.967 539.75L267.359 539.75L267.359 586.25L220.967 586.25L220.967 539.75Z" fill="#1A1A1A" stroke="#51B469" stroke-width="0.5"/>
<path d="M221.25 586.25L267.641 586.25L267.641 632.75L221.25 632.75L221.25 586.25Z" fill="#1A1A1A" stroke="#51B469" stroke-width="0.5"/>
<path d="M200.25 46.6413V0.25L246.75 0.25V46.6413L200.25 46.6413Z" fill="#1A1A1A" stroke="#51B469" stroke-width="0.5"/>
<path d="M246.75 46.6413V0.25L293.25 0.25V46.6413L246.75 46.6413Z" fill="#1A1A1A" stroke="#51B469" stroke-width="0.5"/>
<path d="M246.75 93.0326V46.6414L293.25 46.6414V93.0326H246.75Z" fill="#1A1A1A" stroke="#51B469" stroke-width="0.5"/>
<path d="M293.25 92.7499V46.3586L339.75 46.3586V92.7499H293.25Z" fill="#1A1A1A" stroke="#51B469" stroke-width="0.5"/>
<path d="M180.25 319.75L226.641 319.75L226.641 366.25L180.25 366.25L180.25 319.75Z" fill="#1A1A1A" stroke="#51B469" stroke-width="0.5"/>
<path d="M226.641 319.75L273.033 319.75L273.033 366.25L226.641 366.25L226.641 319.75Z" fill="#1A1A1A" stroke="#51B469" stroke-width="0.5"/>
<path d="M273.033 319.75L319.424 319.75L319.424 366.25L273.033 366.25L273.033 319.75Z" fill="#1A1A1A" stroke="#51B469" stroke-width="0.5"/>
<path d="M226.641 273.25L273.033 273.25L273.033 319.75L226.641 319.75L226.641 273.25Z" fill="#1A1A1A" stroke="#51B469" stroke-width="0.5"/>
<path d="M46.6413 585.75L0.25 585.75L0.249998 539.25L46.6413 539.25L46.6413 585.75Z" fill="#1A1A1A" stroke="#51B469" stroke-width="0.5"/>
<path d="M46.6413 632.25L0.25 632.25L0.249998 585.75L46.6413 585.75L46.6413 632.25Z" fill="#1A1A1A" stroke="#51B469" stroke-width="0.5"/>
<path d="M46.6413 678.75L0.25 678.75L0.249998 632.25L46.6413 632.25L46.6413 678.75Z" fill="#1A1A1A" stroke="#51B469" stroke-width="0.5"/>
<path d="M93.0326 678.75L46.6413 678.75L46.6413 632.25L93.0326 632.25L93.0326 678.75Z" fill="#1A1A1A" stroke="#51B469" stroke-width="0.5"/>
</g>
</svg>
