<svg width="68" height="102" viewBox="0 0 68 102" fill="none" xmlns="http://www.w3.org/2000/svg">
<path d="M11.1418 102H56.8582C60.1521 102 62.7401 101.072 64.6224 99.2157C66.5408 97.3953 67.5 94.8073 67.5 91.452V90.4882C67.5 87.0614 66.7399 83.6703 65.2196 80.315C63.6994 76.9596 61.799 73.7827 59.5186 70.7843C57.2744 67.7501 54.9941 65.0373 52.6775 62.6457C50.3609 60.2184 48.4244 58.2194 46.8679 56.6488C45.0219 54.864 44.117 52.9543 44.1532 50.9197C44.1894 48.8493 45.0943 46.9396 46.8679 45.1906C48.4244 43.6556 50.3609 41.6924 52.6775 39.3008C54.9941 36.8735 57.2744 34.1606 59.5186 31.1622C61.799 28.1638 63.6994 24.9869 65.2196 21.6315C66.7399 18.2404 67.5 14.8136 67.5 11.3512V10.548C67.5 7.19265 66.5408 4.60472 64.6224 2.78425C62.7401 0.928084 60.1521 0 56.8582 0H11.1418C7.88412 0 5.29606 0.928084 3.37763 2.78425C1.45921 4.60472 0.5 7.19265 0.5 10.548V11.3512C0.5 14.8136 1.26013 18.2404 2.78039 21.6315C4.30065 24.9869 6.18287 28.1638 8.42707 31.1622C10.7075 34.1606 13.0059 36.8735 15.3225 39.3008C17.6391 41.6924 19.5756 43.6556 21.1321 45.1906C22.9057 46.9396 23.8106 48.8493 23.8468 50.9197C23.883 52.9543 22.9781 54.864 21.1321 56.6488C19.5756 58.2194 17.6391 60.2184 15.3225 62.6457C13.0059 65.0373 10.7075 67.7501 8.42707 70.7843C6.18287 73.7827 4.30065 76.9596 2.78039 80.315C1.26013 83.6703 0.5 87.0614 0.5 90.4882V91.452C0.5 94.8073 1.45921 97.3953 3.37763 99.2157C5.29606 101.072 7.88412 102 11.1418 102ZM16.4627 91.7732C15.0873 91.7732 14.2185 91.1664 13.8566 89.9528C13.4946 88.7748 13.7842 87.7218 14.7253 86.7937L29.8736 72.0693C30.5251 71.4625 30.9414 70.9806 31.1224 70.6236C31.3395 70.2667 31.4481 69.5706 31.4481 68.5354V47.4929C31.4481 46.0294 31.231 44.7979 30.7966 43.7984C30.3984 42.7989 29.6564 41.8173 28.5705 40.8535C27.014 39.4971 25.2223 37.9087 23.1953 36.0882C21.1683 34.232 19.4308 32.5008 17.983 30.8945C17.1143 30.0021 16.8428 29.074 17.1686 28.1102C17.4943 27.1465 18.2907 26.6646 19.5575 26.6646H48.4425C49.7093 26.6646 50.5057 27.1465 50.8314 28.1102C51.1572 29.074 50.8857 30.0021 50.017 30.8945C48.533 32.5008 46.7774 34.232 44.7504 36.0882C42.7596 37.9087 40.986 39.4971 39.4295 40.8535C38.3436 41.8173 37.6016 42.7989 37.2034 43.7984C36.8052 44.7979 36.6062 46.0294 36.6062 47.4929V68.5354C36.6062 69.5706 36.6967 70.2667 36.8776 70.6236C37.0586 70.9806 37.4749 71.4625 38.1264 72.0693L53.2747 86.7937C54.2158 87.7218 54.5054 88.7748 54.1434 89.9528C53.7815 91.1664 52.9128 91.7732 51.5373 91.7732H16.4627Z" fill="white"/>
</svg>
